<?xml version="1.0" standalone="no"?>
<!DOCTYPE svg PUBLIC "-//W3C//DTD SVG 20010904//EN"
 "http://www.w3.org/TR/2001/REC-SVG-20010904/DTD/svg10.dtd">
<svg version="1.0" xmlns="http://www.w3.org/2000/svg"
 width="500.000000pt" height="500.000000pt" viewBox="0 0 500.000000 500.000000"
 preserveAspectRatio="xMidYMid meet">

<g transform="translate(0.000000,500.000000) scale(0.100000,-0.100000)"
fill="#000000" stroke="none">
<path d="M1521 2910 c-151 -32 -240 -166 -201 -304 27 -96 101 -149 261 -187
130 -30 165 -49 180 -98 14 -46 0 -82 -43 -114 -65 -48 -223 -13 -293 64 -19
22 -38 39 -42 39 -5 -1 -28 -26 -52 -56 -41 -51 -43 -56 -30 -80 37 -70 161
-124 300 -131 112 -6 182 10 246 57 105 78 123 264 35 362 -48 54 -94 75 -222
103 -160 35 -180 49 -180 119 0 22 8 40 26 57 23 22 34 24 119 24 89 0 95 -1
139 -32 26 -18 50 -33 55 -33 5 0 26 25 47 56 l39 56 -38 34 c-22 18 -60 40
-85 49 -57 19 -200 28 -261 15z"/>
<path d="M2971 2909 c-100 -19 -180 -83 -201 -159 -27 -95 -2 -190 65 -249 46
-40 82 -56 173 -77 122 -28 141 -34 172 -60 25 -21 30 -33 30 -69 0 -84 -71
-124 -187 -105 -65 11 -85 21 -146 79 -49 45 -49 45 -65 24 -10 -11 -31 -39
-49 -60 l-32 -40 29 -35 c34 -41 125 -91 199 -108 68 -16 223 -8 274 14 98 43
153 131 151 246 -1 150 -75 211 -314 264 -125 27 -168 69 -139 138 17 41 57
58 136 58 67 0 160 -31 177 -59 14 -22 32 -10 70 45 37 54 38 56 20 76 -62 67
-230 103 -363 77z"/>
<path d="M2000 2835 l0 -75 125 0 125 0 0 -355 0 -355 85 0 85 0 0 355 0 355
120 0 120 0 0 75 0 75 -330 0 -330 0 0 -75z"/>
<path d="M3534 2230 c-63 -25 -72 -123 -15 -167 22 -17 102 -16 127 2 34 23
48 68 34 110 -18 55 -85 80 -146 55z"/>
</g>
</svg>
